<svg width="24" height="24" viewBox="0 0 24 24" fill="none" xmlns="http://www.w3.org/2000/svg">
<path d="M13.0344 14.0062C13.0361 14.5585 12.5898 15.0076 12.0375 15.0093C11.4853 15.011 11.0361 14.5647 11.0344 14.0124L13.0344 14.0062Z" fill="white"/>
<path d="M9.71867 6.72362L11.0075 5.4267L11.0344 14.0124L13.0344 14.0062L13.0075 5.42043L14.3044 6.70924C14.6961 7.09853 15.3293 7.09657 15.7186 6.70482C16.1079 6.31307 16.1059 5.67991 15.7142 5.29061L11.9955 1.59515L8.30003 5.31385L9.71867 6.72362Z" fill="white"/>
<path d="M8.30003 5.31385C7.91073 5.7056 7.9127 6.33878 8.30445 6.72808C8.69619 7.11737 9.32938 7.11537 9.71867 6.72362L8.30003 5.31385Z" fill="white"/>
<path d="M4 12C4 10.8954 4.89543 9.99998 6 9.99998C6.55228 9.99998 7 9.55226 7 8.99998C7 8.44769 6.55228 7.99998 6 7.99998C3.79086 7.99998 2 9.79084 2 12V18C2 20.2091 3.79086 22 6 22H17C19.7614 22 22 19.7614 22 17V12C22 9.79084 20.2091 7.99998 18 7.99998C17.4477 7.99998 17 8.44769 17 8.99998C17 9.55226 17.4477 9.99998 18 9.99998C19.1046 9.99998 20 10.8954 20 12V17C20 18.6568 18.6569 20 17 20H6C4.89543 20 4 19.1045 4 18V12Z" fill="white"/>
</svg>
